<svg height="511pt" viewBox="1 1 511 511.99999" width="511pt" xmlns="http://www.w3.org/2000/svg"><path d="m313.058594 416.800781-40.558594 40.574219v-201.375c0-8.835938-7.164062-16-16-16s-16 7.164062-16 16v201.375l-40.558594-40.574219c-6.140625-6.355469-16.269531-6.53125-22.625-.394531-6.355468 6.140625-6.53125 16.269531-.394531 22.625.128906.132812.261719.261719.394531.390625l67.855469 67.875c1.480469 1.476563 3.234375 2.652344 5.167969 3.453125 3.9375 1.667969 8.382812 1.667969 12.320312 0 1.933594-.800781 3.6875-1.976562 5.167969-3.453125l67.855469-67.875c6.355468-6.136719 6.53125-16.265625.394531-22.621094-6.140625-6.355469-16.269531-6.53125-22.625-.394531-.132813.128906-.265625.261719-.394531.394531zm0 0"/><path d="m464.5 64h-199.441406c-.640625-.96875-1.386719-1.863281-2.222656-2.671875l-54.625-52.398437c-5.933594-5.734376-13.859376-8.9375005-22.109376-8.929688h-137.601562c-26.511719 0-48 21.488281-48 48v288c0 26.511719 21.488281 48 48 48h144c8.835938 0 16-7.164062 16-16s-7.164062-16-16-16h-144c-8.835938 0-16-7.164062-16-16v-288c0-8.835938 7.164062-16 16-16h137.601562l53.550782 51.410156c6.046875 7.921875 15.4375 12.578125 25.40625 12.589844h199.441406c8.835938 0 16 7.164062 16 16v224c0 8.835938-7.164062 16-16 16h-144c-8.835938 0-16 7.164062-16 16s7.164062 16 16 16h144c26.511719 0 48-21.488281 48-48v-224c0-26.507812-21.488281-48-48-48zm0 0"/></svg>