<?xml version="1.0" encoding="utf-8"?>
<!-- Generator: Adobe Illustrator 24.3.0, SVG Export Plug-In . SVG Version: 6.00 Build 0)  -->
<svg version="1.1" id="Слой_1" xmlns="http://www.w3.org/2000/svg" xmlns:xlink="http://www.w3.org/1999/xlink" x="0px" y="0px"
	 viewBox="0 0 1462.5 351.7" style="enable-background:new 0 0 1462.5 351.7;" xml:space="preserve">
<style type="text/css">
	.st0{fill:#333333;stroke:#333333;stroke-miterlimit:10;}
	.st1{fill:none;stroke:#000000;stroke-miterlimit:10;}
	.st2{fill:#FF0000;}
	.st3{fill:#39B54A;}
	.st4{fill:#0071BC;}
	.st5{fill:#FFFFFF;}
	.st6{fill:none;}
	.st7{fill:#333333;}
</style>
<g id="Слой_2_1_">
	<g id="Слой_1-2">
		<path class="st0" d="M359,144.2l-22.1,24.1l-30-27.5l-70.1-64.2l-11.6,6.9l-4.2,2.5l-76.3,45.5l-3.4,2l-2.4,1.4l-0.8,0.5
			l-34.9,20.8l-43.9,26.2l-0.8,0.5l-20.8,12.4c-6.2,3.7-14.1,1.7-17.8-4.5c0,0,0,0,0,0l-2.5-4.2c-4.2-7-1.9-16,5.1-20.2l36.1-21.5
			l19.6-11.7v-22.5c0-7.5,6.1-13.5,13.5-13.5h0h46.4l73.5-43.5l8.6-5.1L241,36.1l12.2,11.2l4.1,3.7l48.8,44.7L359,144.2z"/>
		<line class="st1" x1="137.5" y1="97" x2="137.9" y2="97"/>
		<path class="st2" d="M224.2,249.8l-12.7,16.7l-10.1,13.3l-0.8,1.1l-5.4,7.1l0,0l-0.3,0.5c-1.2,1.6-2.7,2.9-4.4,3.9
			c-0.2,0.1-0.4,0.2-0.6,0.3c-3.1,1.6-6.7,2-10.1,1.2l-0.6-0.1c-3.1-0.8-5.9-2.7-7.8-5.3l-2.3-3l-0.6-0.7L156.7,269l-13-17.2l0,0
			l-0.1-5.6l0,0l-1.7-90.1l-0.4-22.8l3.4-2L221.1,86l3,157l0,0L224.2,249.8z"/>
		<path class="st3" d="M308.9,240l-34.4,45.3l-0.5,0.7l-0.2,0.3c-3.5,4.6-10.1,5.5-14.7,2c0,0,0,0,0,0c-0.7-0.6-1.4-1.2-2-2
			l-15-19.7l-13.5-17.8l-0.1-4.3l-3.1-160.9l11.6-6.9l70.1,64.2L308.9,240z"/>
		<line class="st1" x1="224.1" y1="284" x2="224.1" y2="284"/>
		<path class="st0" d="M121.7,94.5H85.6c-4-0.1-7.1-3.5-7-7.5V72c-0.1-4,3-7.3,7-7.5h36.1c4,0.1,7.1,3.5,7,7.5v15.1
			C128.9,91.1,125.7,94.4,121.7,94.5z"/>
		<polygon class="st4" points="141.2,249.4 141.2,249.4 126.3,269 114.4,284.7 114.4,232.7 126.2,225.9 126.2,195.1 111.9,186.6 
			111.9,212.8 88.1,212.8 88.1,186.3 72.8,195.1 72.8,225.9 84.8,232.8 84.8,279.7 60.6,247.9 59.3,182.8 60.2,182.3 104.1,156.2 
			139,135.3 139.4,156.2 141.2,248.5 		"/>
		<path class="st5" d="M126.2,195.1v30.8l-11.8,6.8v51.9l-3.8,4.9l0,0l-0.3,0.4l-0.1,0.1V249c0-1.8-1.5-3.3-3.3-3.3
			c-1.8,0-3.3,1.5-3.3,3.3v45.2c-4.2,0.9-8.5-0.8-11.1-4.2l0,0l-7.8-10.2v-46.9l-12-6.9v-30.8l15.3-8.8v26.6h23.8v-26.3L126.2,195.1
			z"/>
		<path class="st4" d="M110.3,249v41.1c-1.6,2.1-4,3.6-6.6,4.1V249c0-1.8,1.5-3.3,3.3-3.3C108.8,245.7,110.3,247.2,110.3,249z"/>
		<polygon class="st5" points="188.7,233 180.5,233 180.5,171.4 178,162.3 180.5,146.7 188.7,146.7 191.2,162.3 188.7,171.4 		"/>
		<rect x="164.1" y="233.8" class="st5" width="39.4" height="5.8"/>
		<rect x="166.5" y="240.4" class="st5" width="35.3" height="5.8"/>
		<path class="st5" d="M190,247.2v47c-3.1,1.6-6.7,2-10.1,1.2v-48.2H190z"/>
		<path class="st5" d="M199.4,247.2v35.3l-4.3,7.1l0,0l-0.3,0.5c-0.9,1.5-2.1,2.8-3.5,3.9v-46.7H199.4z"/>
		<path class="st5" d="M178.5,247.2v48.1c-2.8-0.9-5.1-2.8-6.6-5.3l-2-3v-39.8H178.5z"/>
		<rect x="238.4" y="187.4" class="st5" width="56.7" height="14"/>
		<rect x="238.4" y="197.2" class="st6" width="56.7" height="8.2"/>
		<path class="st5" d="M295.1,205.4l-0.7,2.9c-0.6,2.3-2.4,4.1-4.7,4.7l-11,2.8c-2.9,0.7-5,3.4-4.9,6.4l0.7,63.2l-0.5,0.7l-0.2,0.3
			c-3.5,4.6-10.1,5.5-14.7,2c0,0,0,0,0,0v-66.5c0-2.8-1.9-5.2-4.6-5.9l-10.4-2.7c-2.4-0.6-4.3-2.5-4.9-4.9l-0.7-2.7H295.1z"/>
		<polygon class="st5" points="238.8,185.3 238.8,166.2 249,149.2 251.2,147.5 255.3,156.6 257.8,147.5 260.2,164 265.1,145.1 
			267.5,152.7 274.8,149.2 275.8,152.5 279.9,145.9 282.4,154.1 288.3,145.1 293.1,158.2 295.5,165.2 295.5,185.3 		"/>
	</g>
</g>
<g>
	<g>
		<path class="st7" d="M469.2,202.2c-6.6-3.9-11.8-9.4-15.4-16.5s-5.5-15.4-5.5-24.7v-34.6c0-9.4,1.8-17.6,5.5-24.7
			s8.8-12.6,15.4-16.5c6.6-3.9,14.3-5.9,23-5.9c7.2,0,13.9,1.5,19.9,4.6c6.1,3.1,11.1,7.5,15.2,13.1c4.1,5.7,6.8,12.2,8.3,19.7
			h-18.1c-1.1-3.9-2.9-7.4-5.5-10.5c-2.6-3.1-5.6-5.5-9.1-7.2c-3.5-1.7-7.1-2.5-10.8-2.5c-5.1,0-9.7,1.2-13.5,3.7
			c-3.9,2.5-6.9,6-9,10.5c-2.1,4.5-3.2,9.7-3.2,15.7V161c0,5.9,1.1,11.1,3.2,15.6c2.1,4.5,5.1,8,9,10.5c3.9,2.5,8.4,3.7,13.5,3.7
			c3.8,0,7.4-0.8,10.8-2.3c3.4-1.6,6.4-3.9,9-6.9c2.6-3.1,4.4-6.7,5.5-10.9h18.1c-1.4,7.5-4.2,14-8.3,19.7
			c-4.1,5.7-9.2,10-15.3,13.1c-6.1,3.1-12.7,4.6-19.9,4.6C483.5,208,475.8,206.1,469.2,202.2z"/>
		<path class="st7" d="M543.5,80.6h89v16.8h-89V80.6z M579.1,90.9h17.7v115.8h-17.7V90.9z"/>
		<path class="st7" d="M646.4,80.6H664v126.1h-17.7V80.6z M655.5,140.9h40.3c3.8,0,7.2-0.9,10.1-2.7c2.9-1.8,5.1-4.3,6.7-7.6
			c1.6-3.3,2.4-7.1,2.4-11.4c0-4.3-0.8-8.2-2.4-11.4c-1.6-3.3-3.8-5.9-6.7-7.7c-2.9-1.8-6.2-2.7-10.1-2.7h-40.3V80.6h39.7
			c7.5,0,14.1,1.6,19.9,4.8c5.7,3.2,10.2,7.7,13.3,13.6c3.2,5.8,4.7,12.6,4.7,20.3c0,7.7-1.6,14.4-4.7,20.3
			c-3.2,5.8-7.6,10.3-13.3,13.5c-5.7,3.2-12.3,4.8-19.9,4.8h-39.7V140.9z"/>
		<path class="st7" d="M775.4,202.2c-6.7-3.8-11.9-9.3-15.6-16.3c-3.7-7-5.5-15.2-5.5-24.4v-35.7c0-9.3,1.8-17.4,5.5-24.4
			c3.7-7,8.9-12.5,15.6-16.3c6.7-3.8,14.5-5.8,23.2-5.8c8.8,0,16.5,1.9,23.2,5.8c6.7,3.8,11.9,9.3,15.6,16.3
			c3.7,7,5.5,15.2,5.5,24.4v35.7c0,9.3-1.8,17.4-5.5,24.4c-3.7,7-8.9,12.5-15.6,16.3c-6.7,3.8-14.5,5.8-23.2,5.8
			C789.9,208,782.1,206.1,775.4,202.2z M812.4,187c4-2.3,7-5.7,9.2-10c2.2-4.3,3.3-9.3,3.3-15v-36.9c0-5.7-1.1-10.7-3.3-15
			c-2.2-4.3-5.2-7.6-9.2-10c-4-2.3-8.5-3.5-13.7-3.5s-9.8,1.2-13.7,3.5c-4,2.3-7,5.7-9.2,10c-2.2,4.3-3.3,9.3-3.3,15v36.9
			c0,5.7,1.1,10.7,3.3,15c2.2,4.3,5.2,7.6,9.2,10c4,2.3,8.5,3.5,13.7,3.5S808.4,189.4,812.4,187z"/>
		<path class="st7" d="M947.2,206.6v-99.1l2.1,2.3l-63.2,96.9h-14.5v-126h17.5v100.6l-2.1-2.3l63.4-98.4h14.3v126H947.2z"/>
		<path class="st7" d="M978.6,80.6h89v16.8h-89V80.6z M1014.3,90.9h17.7v115.8h-17.7V90.9z"/>
		<path class="st7" d="M1081.5,80.6h17.7v126.1h-17.7V80.6z M1090.1,80.6h72.4v16.8h-72.4V80.6z M1090.1,135.7h62.9v16.8h-62.9
			V135.7z M1090.1,189.9h72.4v16.8h-72.4V189.9z"/>
		<path class="st7" d="M1182.5,189.9c5.1,0,9.2-1.2,12.4-3.5s5.5-6,7-10.9c1.5-4.9,2.3-11.4,2.3-19.3V80.6h17.7v74.5
			c0,12.1-1.3,22-3.9,29.5c-2.6,7.5-6.6,13.1-12.1,16.7c-5.5,3.6-12.7,5.4-21.5,5.4h-1.7V189.9z M1215.1,80.6h60.5v16.8h-60.5V80.6z
			 M1266.2,80.6h17.7v126.1h-17.7V80.6z"/>
		<path class="st7" d="M1315.1,80.6h17.7v126.1h-17.7V80.6z M1324.2,189.9h39.9c4,0,7.5-0.8,10.4-2.4c2.9-1.6,5-4,6.5-7.1
			c1.5-3.1,2.3-6.9,2.3-11.3c0-4.5-0.8-8.2-2.3-11.4c-1.5-3.1-3.7-5.5-6.5-7.2s-6.3-2.5-10.4-2.5h-39.9v-16.8h39.3
			c8,0,14.8,1.5,20.5,4.4c5.7,2.9,10,7.3,13,12.9c3,5.7,4.5,12.5,4.5,20.5c0,7.9-1.5,14.7-4.5,20.3c-3,5.6-7.3,9.9-13,12.9
			c-5.7,2.9-12.5,4.4-20.5,4.4h-39.3V189.9z"/>
	</g>
</g>
<g>
	<g>
		<path class="st7" d="M609.2,299.4v-47.5l2-0.8l-31.4,48.4h-6.1v-57.2h6.8v48l-1.7,0.5l31.1-48.5h6v57.2H609.2z"/>
		<path class="st7" d="M629.4,258.5h6.8v40.9h-6.8V258.5z M633.6,276.2h26.6v6.2h-26.6V276.2z M656.4,258.5h6.8v40.9h-6.8V258.5z"/>
		<path class="st7" d="M673.9,258.5h31.7v6.3h-31.7V258.5z M686.3,261.8h6.8v37.5h-6.8V261.8z"/>
		<path class="st7" d="M723.3,297.8c-2.7-1.4-4.7-3.5-6.1-6.3c-1.4-2.7-2.1-6-2.1-9.9v-4.6c0-4,0.7-7.5,2-10.4
			c1.4-2.9,3.3-5,5.9-6.5c2.6-1.5,5.7-2.2,9.3-2.2c3.4,0,6.3,0.8,8.7,2.4c2.4,1.6,4.3,3.9,5.5,6.9c1.3,3,1.9,6.7,1.9,10.9v3.7h-28.5
			v-5.7H742v-0.2c-0.1-3.7-1-6.6-2.7-8.6s-4-3.1-7-3.1c-3.4,0-6.1,1.1-8,3.2c-1.9,2.2-2.8,5.2-2.8,9.2v5.2c0,3.8,1,6.6,3,8.7
			s4.8,3,8.5,3c1.8,0,3.5-0.4,5.2-1.1c1.7-0.7,3.3-1.7,4.6-3.1l4.6,4.5c-2,1.9-4.3,3.4-6.8,4.5s-5.1,1.6-7.6,1.6
			C729.2,300,725.9,299.3,723.3,297.8z"/>
		<path class="st7" d="M759.4,258.5h6.8V316h-6.8V258.5z M770.2,298.3c-2.1-1.2-3.6-2.9-4.5-5.3l0.6-8.5c0,1.8,0.4,3.4,1.1,4.8
			c0.7,1.4,1.8,2.6,3.2,3.4c1.4,0.8,3,1.3,4.9,1.3c3,0,5.4-0.9,7-2.7c1.7-1.8,2.5-4.4,2.5-7.7v-8.9c0-3.4-0.8-6-2.5-7.9
			c-1.7-1.8-4-2.8-7-2.8c-1.9,0-3.6,0.4-4.9,1.2c-1.4,0.8-2.4,1.9-3.2,3.3c-0.7,1.4-1.1,3-1.1,4.7l-0.8-7.9c1.3-2.5,3.1-4.4,5.2-5.6
			s4.7-1.8,7.4-1.8c2.9,0,5.4,0.6,7.4,1.9c2.1,1.3,3.6,3.2,4.7,5.7c1.1,2.5,1.6,5.5,1.6,9v8.9c0,3.5-0.6,6.4-1.7,8.9
			c-1.1,2.5-2.7,4.3-4.8,5.6c-2.1,1.3-4.7,1.9-7.6,1.9C774.8,300,772.3,299.4,770.2,298.3z"/>
		<path class="st7" d="M803.3,258.5h6.8v40.9h-6.8V258.5z M807.5,276.2h26.6v6.2h-26.6V276.2z M830.3,258.5h6.8v40.9h-6.8V258.5z"/>
		<path class="st7" d="M856.8,297.8c-2.7-1.4-4.7-3.5-6.1-6.3c-1.4-2.7-2.1-6-2.1-9.9v-4.6c0-4,0.7-7.5,2-10.4
			c1.4-2.9,3.3-5,5.9-6.5c2.6-1.5,5.7-2.2,9.3-2.2c3.4,0,6.3,0.8,8.7,2.4c2.4,1.6,4.3,3.9,5.5,6.9c1.3,3,1.9,6.7,1.9,10.9v3.7h-28.5
			v-5.7h22.1v-0.2c-0.1-3.7-1-6.6-2.7-8.6s-4-3.1-7-3.1c-3.4,0-6.1,1.1-8,3.2c-1.9,2.2-2.8,5.2-2.8,9.2v5.2c0,3.8,1,6.6,3,8.7
			s4.8,3,8.5,3c1.8,0,3.5-0.4,5.2-1.1c1.7-0.7,3.3-1.7,4.6-3.1l4.6,4.5c-2,1.9-4.3,3.4-6.8,4.5s-5.1,1.6-7.6,1.6
			C862.7,300,859.4,299.3,856.8,297.8z"/>
		<path class="st7" d="M891,258.5h31.7v6.3H891V258.5z M903.4,261.8h6.8v37.5h-6.8V261.8z"/>
		<path class="st7" d="M987.4,258.5h6v40.9h-6.1v-32l0.4,2.9l-11.5,21.1h-4l-11.5-21.1l0.4-2.9v32H955v-40.9h6l13.2,24.4
			L987.4,258.5z"/>
		<path class="st7" d="M1007.9,296.8c-2.6-2.2-3.8-5.3-3.8-9.4c0-3.9,1.2-6.9,3.5-9c2.3-2.1,5.8-3.1,10.3-3.1h12.6l0.6,5.9h-13.1
			c-2.4,0-4.2,0.5-5.4,1.6c-1.2,1.1-1.8,2.6-1.8,4.7c0,2.2,0.8,3.9,2.4,5s3.9,1.7,6.9,1.7c3.3,0,5.8-0.3,7.5-1
			c1.7-0.7,2.6-1.7,2.6-3l0.8,5.5c-0.8,1-1.7,1.8-2.9,2.5c-1.2,0.7-2.5,1.2-4,1.5c-1.5,0.3-3.1,0.5-5,0.5
			C1014.1,300,1010.4,298.9,1007.9,296.8z M1030,273.5c0-3-0.8-5.3-2.4-7s-3.9-2.5-6.8-2.5c-1.8,0-3.5,0.3-5.3,0.8
			c-1.7,0.6-3.2,1.4-4.5,2.4l-5-3.4c1.5-1.9,3.6-3.3,6.1-4.3c2.5-1,5.3-1.6,8.4-1.6c3.4,0,6.3,0.6,8.7,1.8s4.3,2.9,5.5,5.2
			c1.3,2.3,1.9,5,1.9,8.2v26.3h-6.7V273.5z"/>
		<path class="st7" d="M1048.9,258.5h6.8v40.9h-6.8V258.5z M1052.8,258.5h22.2v6.5h-22.2V258.5z"/>
		<path class="st7" d="M1085.2,296.8c-2.6-2.2-3.8-5.3-3.8-9.4c0-3.9,1.2-6.9,3.5-9c2.3-2.1,5.8-3.1,10.3-3.1h12.6l0.6,5.9h-13.1
			c-2.4,0-4.2,0.5-5.4,1.6c-1.2,1.1-1.8,2.6-1.8,4.7c0,2.2,0.8,3.9,2.4,5s3.9,1.7,6.9,1.7c3.3,0,5.8-0.3,7.5-1
			c1.7-0.7,2.6-1.7,2.6-3l0.8,5.5c-0.8,1-1.7,1.8-2.9,2.5c-1.2,0.7-2.5,1.2-4,1.5c-1.5,0.3-3.1,0.5-5,0.5
			C1091.5,300,1087.7,298.9,1085.2,296.8z M1107.4,273.5c0-3-0.8-5.3-2.4-7s-3.9-2.5-6.8-2.5c-1.8,0-3.5,0.3-5.3,0.8
			c-1.7,0.6-3.2,1.4-4.5,2.4l-5-3.4c1.5-1.9,3.6-3.3,6.1-4.3c2.5-1,5.3-1.6,8.4-1.6c3.4,0,6.3,0.6,8.7,1.8s4.3,2.9,5.5,5.2
			c1.3,2.3,1.9,5,1.9,8.2v26.3h-6.7V273.5z"/>
		<path class="st7" d="M1131.4,298.6c-2.1-0.9-3.9-2.3-5.2-4.1s-2.1-4-2.5-6.6h6.7c0.3,1.9,1.3,3.3,2.8,4.4c1.5,1,3.4,1.5,5.8,1.5
			c2.6,0,4.6-0.6,6.1-1.7c1.4-1.1,2.2-2.7,2.2-4.8v0c0-1.6-0.6-2.9-1.8-3.8c-1.2-0.9-3-1.4-5.3-1.4h-5.6v-6.3h5.6
			c1.8,0,3.3-0.5,4.3-1.5c1-1,1.5-2.4,1.5-4.2v0c0-1.9-0.6-3.3-1.9-4.4c-1.3-1-3-1.5-5.4-1.5c-2.2,0-4,0.5-5.5,1.6
			c-1.5,1-2.5,2.5-3,4.3h-6.7c0.8-3.9,2.5-6.8,5.1-9c2.6-2.1,6-3.2,10-3.2c4.5,0,8,1,10.4,2.9c2.5,1.9,3.7,4.6,3.7,8.1v0
			c0,2.3-0.6,4.2-1.8,5.8c-1.2,1.6-2.8,2.8-4.9,3.6c2.5,0.3,4.5,1.3,5.9,2.9s2.1,3.7,2.1,6.2v0c0,4-1.3,7-4,9.2
			c-2.7,2.2-6.4,3.2-11.3,3.2C1136,300,1133.5,299.5,1131.4,298.6z"/>
		<path class="st7" d="M1191.4,299.4v-30.9l0.9,1l-22,29.9h-5.8v-40.8h6.8v31.6l-0.9-1l22.1-30.5h5.7v40.8H1191.4z"/>
		<path class="st7" d="M1210.8,258.5h6.8v40.9h-6.8V258.5z M1215,276.2h26.6v6.2H1215V276.2z M1237.8,258.5h6.8v40.9h-6.8V258.5z"/>
	</g>
</g>
</svg>
